<?xml version="1.0" standalone="no"?>
<!DOCTYPE svg PUBLIC "-//W3C//DTD SVG 20010904//EN"
 "http://www.w3.org/TR/2001/REC-SVG-20010904/DTD/svg10.dtd">
<svg version="1.0" xmlns="http://www.w3.org/2000/svg"
 width="1331.000000pt" height="844.000000pt" viewBox="0 0 1331.000000 844.000000"
 preserveAspectRatio="xMidYMid meet">

<g transform="translate(0.000000,844.000000) scale(0.100000,-0.100000)"
fill="#000000" stroke="none">
<path d="M0 7280 l0 -1160 80 0 80 0 0 -40 0 -40 160 0 160 0 0 -40 0 -40 80
0 80 0 0 -40 0 -40 80 0 c73 0 80 -2 80 -20 0 -18 7 -20 80 -20 73 0 80 -2 80
-20 0 -18 7 -20 80 -20 l80 0 0 -40 0 -40 80 0 c73 0 80 -2 80 -20 0 -18 7
-20 80 -20 73 0 80 -2 80 -20 0 -18 7 -20 80 -20 l80 0 0 -40 0 -40 80 0 80 0
0 -40 0 -40 160 0 160 0 0 -40 0 -40 80 0 80 0 0 -40 0 -40 160 0 160 0 0 -40
0 -40 80 0 80 0 0 -40 0 -40 160 0 160 0 0 -40 0 -40 80 0 80 0 0 -40 0 -40
160 0 160 0 0 -40 0 -40 80 0 80 0 0 -40 0 -40 160 0 160 0 0 -40 0 -40 80 0
80 0 0 -40 0 -40 80 0 80 0 0 -40 0 -39 185 -3 c143 -2 185 0 185 10 0 17 25
15 44 -4 9 -8 20 -13 24 -10 5 3 8 -11 7 -31 -1 -27 4 -37 17 -41 13 -3 18
-14 18 -43 l0 -39 80 0 c73 0 80 -2 80 -20 0 -18 7 -20 80 -20 73 0 80 -2 80
-20 0 -18 7 -20 80 -20 l80 0 0 -40 0 -40 80 0 c73 0 80 -2 80 -20 0 -18 7
-20 80 -20 73 0 80 -2 80 -20 0 -18 7 -20 80 -20 l80 0 0 -40 0 -40 80 0 c73
0 80 -2 80 -20 0 -18 7 -20 80 -20 73 0 80 -2 80 -20 0 -18 7 -20 80 -20 l80
0 0 -40 0 -40 80 0 c73 0 80 -2 80 -20 0 -18 7 -20 80 -20 l80 0 0 -40 0 -40
80 0 c73 0 80 -2 80 -20 0 -18 7 -20 80 -20 l80 0 0 -40 0 -40 160 0 160 0 0
-40 0 -40 80 0 80 0 0 -40 0 -40 160 0 160 0 0 -40 0 -40 80 0 80 0 0 -40 0
-40 160 0 160 0 0 -40 0 -40 80 0 80 0 0 -40 0 -40 160 0 160 0 0 -40 0 -40
80 0 80 0 0 -40 0 -40 80 0 80 0 0 -40 0 -40 160 0 160 0 0 -40 0 -40 80 0 80
0 0 -40 0 -40 160 0 160 0 0 -40 0 -40 80 0 80 0 0 -40 0 -40 80 0 c73 0 80
-2 80 -20 0 -18 7 -20 80 -20 73 0 80 -2 80 -20 0 -18 7 -20 80 -20 l80 0 0
-40 0 -40 80 0 c73 0 80 -2 80 -20 0 -18 7 -20 80 -20 73 0 80 -2 80 -20 0
-18 7 -20 80 -20 l80 0 0 -40 0 -40 160 0 160 0 0 -40 0 -40 80 0 80 0 0 -40
0 -40 80 0 80 0 0 -40 0 -40 160 0 160 0 0 -40 0 -40 80 0 80 0 0 -40 0 -40
160 0 160 0 0 -40 0 -40 80 0 80 0 0 -40 0 -40 160 0 160 0 0 -40 0 -40 80 0
80 0 0 -40 0 -40 160 0 160 0 0 -40 c0 -29 4 -40 15 -40 13 0 15 389 15 3440
l0 3440 -6655 0 -6655 0 0 -1160z m2864 861 c10 -16 -5 -41 -24 -41 -20 0 -30
17 -22 38 5 14 38 16 46 3z m-1984 -191 c0 -15 -7 -20 -25 -20 -18 0 -25 5
-25 20 0 15 7 20 25 20 18 0 25 -5 25 -20z m10490 -10 c0 -5 -4 -10 -10 -10
-5 0 -10 5 -10 10 0 6 5 10 10 10 6 0 10 -4 10 -10z m-1026 -496 c10 -4 16
-18 16 -35 0 -25 -4 -29 -29 -29 -34 0 -51 31 -31 55 14 17 21 18 44 9z m1095
-253 c16 -28 -14 -51 -36 -28 -13 13 -14 19 -3 31 17 21 27 20 39 -3z m-1995
-42 c-7 -11 -34 -12 -34 -1 0 14 11 21 26 15 8 -3 11 -9 8 -14z m-4631 -580
c15 -24 1 -49 -27 -49 -31 0 -40 14 -32 46 8 29 42 30 59 3z m4395 -437 c2 -7
-3 -12 -12 -12 -9 0 -16 7 -16 16 0 17 22 14 28 -4z m1685 -603 c15 -24 1 -49
-27 -49 -31 0 -48 27 -34 53 11 22 46 19 61 -4z m-6743 -69 c0 -11 -7 -20 -15
-20 -8 0 -15 9 -15 20 0 11 7 20 15 20 8 0 15 -9 15 -20z m4883 -402 c6 -19
-3 -38 -18 -38 -7 0 -15 6 -18 13 -6 18 3 37 18 37 7 0 15 -6 18 -12z m-859
-254 c7 -19 -1 -34 -19 -34 -18 0 -28 17 -21 35 7 20 32 19 40 -1z m-3134
-103 c0 -14 -5 -18 -19 -14 -12 3 -17 11 -14 19 8 21 33 17 33 -5z m5345 -36
c0 -11 -8 -21 -17 -23 -14 -3 -18 3 -18 23 0 20 4 26 18 23 9 -2 17 -12 17
-23z m-5635 -35 c24 -15 7 -18 -25 -4 -23 10 -25 13 -10 13 11 1 27 -3 35 -9z
m49 -62 c0 -28 -2 -30 -9 -13 -12 28 -12 45 0 45 6 0 10 -15 9 -32z m6064 -83
c-6 -16 -16 -19 -26 -8 -9 8 13 34 24 28 4 -3 6 -12 2 -20z m1533 -622 c-11
-11 -19 6 -11 24 8 17 8 17 12 0 3 -10 2 -21 -1 -24z m-4399 -166 c1 -49 -1
-57 -17 -57 -15 0 -18 9 -18 53 0 58 4 70 21 64 7 -2 13 -28 14 -60z m4853
-168 c13 -23 -1 -49 -26 -49 -18 0 -35 34 -28 54 9 23 41 20 54 -5z m-2920
-86 c8 -16 15 -30 16 -33 4 -9 -65 -10 -71 0 -3 5 -3 21 1 35 8 33 37 32 54
-2z m2175 -477 c0 -52 -63 -62 -73 -12 -7 33 6 47 40 44 29 -3 33 -7 33 -32z"/>
<path d="M4645 4566 c-19 -14 -19 -15 -2 -22 22 -8 30 -1 25 21 -3 14 -5 14
-23 1z"/>
<path d="M4682 4530 c0 -19 2 -27 5 -17 2 9 2 25 0 35 -3 9 -5 1 -5 -18z"/>
<path d="M9531 2754 c0 -11 3 -14 6 -6 3 7 2 16 -1 19 -3 4 -6 -2 -5 -13z"/>
<path d="M9630 2763 c0 -6 -3 -18 -6 -27 -3 -9 -2 -16 4 -16 15 0 21 25 11 41
-5 9 -9 9 -9 2z"/>
<path d="M9520 2714 c0 -8 5 -12 10 -9 6 4 8 11 5 16 -9 14 -15 11 -15 -7z"/>
<path d="M9610 2689 c0 -5 9 -9 20 -9 11 0 20 2 20 4 0 2 -9 6 -20 9 -11 3
-20 1 -20 -4z"/>
<path d="M12015 1720 c-3 -5 -1 -10 4 -10 6 0 11 5 11 10 0 6 -2 10 -4 10 -3
0 -8 -4 -11 -10z"/>
<path d="M13186 1261 c-4 -7 -5 -15 -2 -18 9 -9 19 4 14 18 -4 11 -6 11 -12 0z"/>
</g>
</svg>
